<?xml version="1.0" encoding="UTF-8"?>
<svg id="Layer_1" data-name="Layer 1" xmlns="http://www.w3.org/2000/svg" viewBox="0 0 1268.38 509">
  <defs>
    <style>
      .cls-1 {
        fill: #fff;
      }
    </style>
  </defs>
  <g>
    <path class="cls-1" d="M313.66,169.61c4.11-12.63,6.34-26.11,6.34-40.11C320,57.98,262.02,0,190.5,0S61,57.98,61,129.5c0,15.08,2.59,29.56,7.33,43.02C28.69,184.75,0,220.41,0,262.5c0,52.19,44.1,94.5,98.5,94.5,9.45,0,18.58-1.28,27.23-3.66l-55.59-55.59c-2.93-2.93-2.93-7.68,0-10.61,2.93-2.93,7.68-2.93,10.61,0l60.52,60.52c15.67-7.26,29.03-18.38,38.74-32.07v-154.58c0-8.28,6.72-15,15-15s15,6.72,15,15v148.45c3.26,5.45,7.07,10.56,11.36,15.26l92.11-92.11c2.93-2.93,7.68-2.93,10.61,0,2.93,2.93,2.93,7.68,0,10.61l-91.78,91.78c17.1,13.74,39.14,22.02,63.19,22.02,54.4,0,98.5-42.31,98.5-94.5,0-46.24-34.62-84.71-80.34-92.89Z"/>
    <path class="cls-1" d="M196.92,258.84c.05,1.21.08,2.43.08,3.66,0-1.23.03-2.45.08-3.67-.05,0-.11,0-.16,0Z"/>
    <path class="cls-1" d="M221.36,324.71l-11.36,11.36v-26.62c-8.27-13.83-13-29.86-13-46.95,0,19.68-6.27,37.95-17,53.08v70.81l-38.74-38.74c-4.96,2.3-10.15,4.2-15.53,5.68l52.52,52.52c.53.53,1.12.96,1.75,1.3v86.84c0,8.28,6.72,15,15,15s15-6.72,15-15v-140.51c.22.02.44.03.66.03,1.92,0,3.84-.73,5.3-2.2l16.34-16.34c-3.92-3.15-7.58-6.58-10.94-10.27Z"/>
  </g>
  <g>
    <path class="cls-1" d="M502.63,343.31h-41.69V66.99h-103.3v-34.38h247.84v34.38h-102.84v276.32Z"/>
    <path class="cls-1" d="M742.59,105.72c4.63,0,9.65.22,15.06.65,5.4.44,10.11,1.09,14.13,1.96l-5.1,35.25c-4.02-.87-8.42-1.59-13.2-2.18-4.79-.58-9.34-.87-13.67-.87-12.67,0-24.55,3.26-35.67,9.79-11.12,6.53-20,15.67-26.64,27.41-6.64,11.75-9.96,25.46-9.96,41.12v124.45h-40.77V110.07h33.35l4.63,42.64h1.85c8.03-12.76,18.37-23.78,31.04-33.07,12.66-9.28,27.64-13.92,44.93-13.92Z"/>
    <path class="cls-1" d="M904.73,105.72c21.31,0,39.61,4.35,54.89,13.05,15.29,8.7,27.02,20.96,35.21,36.77,8.18,15.81,12.28,34.31,12.28,55.48v23.06h-170.01c.62,26.4,7.8,46.49,21.54,60.27,13.74,13.78,32.96,20.67,57.67,20.67,15.75,0,29.72-1.37,41.92-4.13,12.2-2.75,24.78-6.74,37.75-11.97v33.51c-12.67,5.22-25.17,9.07-37.52,11.53-12.36,2.46-27.03,3.7-44.01,3.7-23.47,0-44.24-4.49-62.31-13.49-18.07-8.99-32.12-22.41-42.16-40.25-10.04-17.84-15.06-39.67-15.06-65.49s4.55-47.43,13.67-65.71c9.11-18.28,21.92-32.34,38.45-42.21,16.52-9.86,35.74-14.79,57.67-14.79ZM904.27,137.05c-19.46,0-34.82,5.87-46.09,17.62-11.28,11.75-17.99,28.07-20.15,48.95h126.46c-.31-19.72-5.25-35.75-14.82-48.08-9.58-12.33-24.71-18.49-45.4-18.49Z"/>
    <path class="cls-1" d="M1166,105.72c21.31,0,39.61,4.35,54.89,13.05,15.29,8.7,27.02,20.96,35.21,36.77,8.18,15.81,12.28,34.31,12.28,55.48v23.06h-170.01c.62,26.4,7.8,46.49,21.54,60.27,13.74,13.78,32.96,20.67,57.67,20.67,15.75,0,29.72-1.37,41.92-4.13,12.2-2.75,24.78-6.74,37.75-11.97v33.51c-12.67,5.22-25.17,9.07-37.52,11.53-12.36,2.46-27.03,3.7-44.01,3.7-23.47,0-44.24-4.49-62.31-13.49-18.07-8.99-32.12-22.41-42.16-40.25-10.04-17.84-15.06-39.67-15.06-65.49s4.55-47.43,13.67-65.71c9.11-18.28,21.92-32.34,38.45-42.21,16.52-9.86,35.74-14.79,57.67-14.79ZM1165.54,137.05c-19.46,0-34.82,5.87-46.09,17.62-11.28,11.75-17.99,28.07-20.15,48.95h126.46c-.31-19.72-5.25-35.75-14.82-48.08-9.58-12.33-24.71-18.49-45.4-18.49Z"/>
  </g>
  <g>
    <path class="cls-1" d="M477.83,373.74c12.67,0,21.9,2.1,27.7,6.31,5.79,4.21,8.69,10.14,8.69,17.78,0,4.51-1.2,8.74-3.6,12.68-2.4,3.94-6.43,7.13-12.08,9.58-5.66,2.45-13.33,3.67-23.01,3.67h-11.13v31.89h-12.22v-81.91h25.66ZM476.74,382.58h-12.35v32.35h9.78c9.23,0,16.11-1.26,20.64-3.79,4.52-2.52,6.79-6.81,6.79-12.85,0-5.28-1.99-9.22-5.97-11.82-3.98-2.6-10.27-3.9-18.87-3.9Z"/>
    <path class="cls-1" d="M544.63,394.05c0,3.06-.23,5.93-.68,8.6h.81c2.35-3.13,5.54-5.51,9.57-7.11,4.03-1.61,8.39-2.41,13.1-2.41,8.87,0,15.52,1.78,19.96,5.33,4.43,3.56,6.65,9.28,6.65,17.15v40.04h-11.81v-39.35c0-9.87-5.43-14.8-16.29-14.8-8.15,0-13.74,1.93-16.77,5.79-3.03,3.86-4.55,9.39-4.55,16.58v31.78h-11.95v-87.19h11.95v25.58Z"/>
    <path class="cls-1" d="M679.85,424.8c0,10.17-3.05,18.05-9.16,23.63-6.11,5.58-14.37,8.38-24.78,8.38-6.43,0-12.15-1.24-17.17-3.73-5.02-2.48-8.98-6.12-11.88-10.9-2.9-4.78-4.34-10.57-4.34-17.38,0-10.17,3.03-18.01,9.1-23.52,6.06-5.51,14.3-8.26,24.71-8.26,6.61,0,12.42,1.24,17.45,3.73,5.02,2.49,8.96,6.08,11.81,10.78s4.28,10.46,4.28,17.27ZM624.87,424.8c0,7.27,1.7,13.02,5.09,17.27,3.39,4.25,8.8,6.37,16.22,6.37s12.72-2.12,16.16-6.37c3.44-4.25,5.16-10,5.16-17.27s-1.72-12.96-5.16-17.09c-3.44-4.13-8.87-6.2-16.29-6.2s-12.81,2.07-16.16,6.2c-3.35,4.13-5.02,9.83-5.02,17.09Z"/>
    <path class="cls-1" d="M723.03,448.54c1.81,0,3.67-.13,5.57-.4,1.9-.27,3.44-.55,4.62-.86v7.69c-1.27.54-3.08.98-5.43,1.32-2.35.34-4.62.52-6.79.52-3.8,0-7.31-.56-10.52-1.66-3.21-1.11-5.82-3.04-7.81-5.79-1.99-2.75-2.99-6.62-2.99-11.59v-35.79h-10.32v-4.82l10.46-4.01,4.75-13.08h7.06v14.11h21.04v7.8h-21.04v35.57c0,3.75,1.06,6.52,3.19,8.32,2.13,1.8,4.86,2.7,8.21,2.7Z"/>
    <path class="cls-1" d="M811,424.8c0,10.17-3.05,18.05-9.16,23.63-6.11,5.58-14.37,8.38-24.78,8.38-6.43,0-12.15-1.24-17.17-3.73-5.02-2.48-8.98-6.12-11.88-10.9-2.9-4.78-4.34-10.57-4.34-17.38,0-10.17,3.03-18.01,9.1-23.52,6.06-5.51,14.3-8.26,24.71-8.26,6.61,0,12.42,1.24,17.45,3.73,5.02,2.49,8.96,6.08,11.81,10.78s4.28,10.46,4.28,17.27ZM756.02,424.8c0,7.27,1.7,13.02,5.09,17.27,3.39,4.25,8.8,6.37,16.22,6.37s12.72-2.12,16.16-6.37c3.44-4.25,5.16-10,5.16-17.27s-1.72-12.96-5.16-17.09c-3.44-4.13-8.87-6.2-16.29-6.2s-12.81,2.07-16.16,6.2c-3.35,4.13-5.02,9.83-5.02,17.09Z"/>
    <path class="cls-1" d="M855.67,393.02c4.8,0,9.12.77,12.97,2.29,3.85,1.53,7.13,3.86,9.84,7h.68l1.63-8.15h9.5v62.52c0,8.79-2.65,15.41-7.94,19.85-5.29,4.43-13.51,6.65-24.64,6.65s-19.42-1.3-26.2-3.9v-9.29c7.15,3.21,16.11,4.82,26.88,4.82,6.25,0,11.15-1.55,14.73-4.65,3.57-3.1,5.36-7.32,5.36-12.68v-2.41c0-.92.04-2.24.14-3.96.09-1.72.18-2.93.27-3.61h-.54c-4.89,6.2-12.4,9.29-22.54,9.29-9.42,0-16.77-2.79-22.06-8.38-5.29-5.58-7.94-13.38-7.94-23.4s2.65-17.57,7.94-23.35c5.29-5.77,12.6-8.66,21.93-8.66ZM857.3,401.51c-6.07,0-10.77,2.05-14.12,6.14-3.35,4.09-5.02,9.92-5.02,17.5s1.65,13.37,4.96,17.38c3.3,4.02,8.12,6.02,14.46,6.02,7.33,0,12.67-1.66,16.02-4.99,3.35-3.33,5.02-8.7,5.02-16.12v-2.41c0-8.41-1.72-14.44-5.16-18.07-3.44-3.63-8.83-5.45-16.16-5.45Z"/>
    <path class="cls-1" d="M947.32,393.02c1.36,0,2.83.06,4.41.17,1.58.12,2.96.29,4.14.52l-1.49,9.29c-1.18-.23-2.47-.42-3.87-.57-1.4-.15-2.74-.23-4-.23-3.71,0-7.2.86-10.45,2.58-3.26,1.72-5.86,4.13-7.81,7.23-1.95,3.1-2.92,6.71-2.92,10.84v32.81h-11.95v-61.49h9.78l1.36,11.24h.54c2.35-3.37,5.38-6.27,9.1-8.72,3.71-2.45,8.1-3.67,13.17-3.67Z"/>
    <path class="cls-1" d="M994.29,393.13c8.87,0,15.43,1.65,19.69,4.93,4.25,3.29,6.38,8.53,6.38,15.72v41.87h-8.69l-2.31-8.72h-.54c-3.17,3.37-6.5,5.85-9.98,7.46-3.49,1.61-8.3,2.41-14.46,2.41-6.61,0-12.08-1.47-16.43-4.42-4.34-2.94-6.52-7.55-6.52-13.82s2.85-10.84,8.55-14.17,14.48-5.14,26.34-5.45l12.36-.34v-3.67c0-5.12-1.31-8.68-3.94-10.67-2.63-1.99-6.34-2.98-11.13-2.98-3.8,0-7.42.48-10.86,1.43-3.44.96-6.65,2.05-9.64,3.27l-3.67-7.57c3.17-1.45,6.92-2.7,11.27-3.73,4.34-1.03,8.87-1.55,13.58-1.55ZM997.82,425.94c-9.05.31-15.32,1.53-18.8,3.67-3.49,2.14-5.23,5.16-5.23,9.06,0,3.44,1.24,5.97,3.73,7.57,2.49,1.61,5.68,2.41,9.57,2.41,6.15,0,11.27-1.43,15.34-4.3s6.11-7.28,6.11-13.25v-5.51l-10.73.34Z"/>
    <path class="cls-1" d="M1077.52,393.02c8.96,0,16.18,2.64,21.66,7.92,5.48,5.28,8.21,13.23,8.21,23.86s-2.74,18.43-8.21,23.86c-5.48,5.43-12.74,8.15-21.79,8.15-5.61,0-10.25-.9-13.92-2.7s-6.54-3.88-8.62-6.25h-.81c.18,1.3.36,2.94.54,4.93.18,1.99.27,3.71.27,5.16v25.24h-11.95v-89.03h9.78l1.63,8.38h.54c2.17-2.68,5.02-4.93,8.55-6.77,3.53-1.84,8.23-2.75,14.12-2.75ZM1075.35,401.51c-7.42,0-12.65,1.76-15.68,5.28-3.03,3.52-4.64,8.87-4.82,16.06v1.95c0,7.57,1.47,13.41,4.41,17.5,2.94,4.09,8.39,6.14,16.36,6.14,4.43,0,8.08-1.03,10.93-3.1,2.85-2.07,4.98-4.88,6.38-8.43,1.4-3.56,2.1-7.63,2.1-12.22,0-7.04-1.61-12.66-4.82-16.86-3.21-4.21-8.17-6.31-14.87-6.31Z"/>
    <path class="cls-1" d="M1138.34,394.05c0,3.06-.23,5.93-.68,8.6h.81c2.35-3.13,5.54-5.51,9.57-7.11,4.03-1.61,8.39-2.41,13.1-2.41,8.87,0,15.52,1.78,19.96,5.33,4.43,3.56,6.65,9.28,6.65,17.15v40.04h-11.81v-39.35c0-9.87-5.43-14.8-16.29-14.8-8.15,0-13.74,1.93-16.77,5.79-3.03,3.86-4.55,9.39-4.55,16.58v31.78h-11.95v-87.19h11.95v25.58Z"/>
    <path class="cls-1" d="M1198.89,394.17h12.76l15.75,34.99c1.36,3.06,2.58,5.99,3.67,8.78,1.09,2.79,1.9,5.45,2.44,7.97h.54c.54-1.91,1.4-4.42,2.58-7.51,1.17-3.1,2.4-6.21,3.67-9.35l14.8-34.88h12.9l-31.36,69.98c-2.54,5.81-5.82,10.44-9.84,13.88-4.03,3.44-9.57,5.16-16.63,5.16-2.17,0-4.07-.1-5.7-.29-1.63-.19-3.03-.4-4.21-.63v-8.03c1,.15,2.19.3,3.6.46,1.4.15,2.87.23,4.41.23,4.16,0,7.54-.99,10.12-2.98,2.58-1.99,4.59-4.63,6.04-7.92l3.8-8.15-29.33-61.72Z"/>
  </g>
</svg>